<?xml version='1.0' encoding='utf-8'?>
<mxfile host="app.diagrams.net" modified="2025-01-01T00:00:00.000Z" agent="Claude Code" version="22.1.0" type="device">
  <diagram name="ERD - Pro Team Care" id="erd-diagram">
    <mxGraphModel dx="1500" dy="1000" grid="1" gridSize="10" guides="1" tooltips="1" connect="1" arrows="1" fold="1" page="1" pageScale="1" pageWidth="4000" pageHeight="3000" math="0" shadow="0">
      <root>
        <mxCell id="0" />
        <mxCell id="1" parent="0" />
        <mxCell id="title" value="&lt;h1&gt;Core&lt;/h1&gt;&lt;br/&gt;Entity Relationship Diagram" style="text;html=1;strokeColor=none;fillColor=none;align=center;verticalAlign=middle;whiteSpace=wrap;rounded=0;fontSize=20;fontStyle=1" vertex="1" parent="1">
          <mxGeometry x="50" y="20" width="400" height="60" as="geometry" />
        </mxCell>
        <mxCell id="table_1000" value="&lt;b&gt;User&lt;/b&gt;" style="swimlane;fontStyle=1;align=center;verticalAlign=top;childLayout=stackLayout;horizontal=1;startSize=26;horizontalStack=0;resizeParent=1;resizeParentMax=0;resizeLast=0;collapsible=1;marginBottom=0;fillColor=#FFE6CC;strokeColor=#6c8ebf;" vertex="1" parent="1">
          <mxGeometry x="50" y="120" width="200" height="200" as="geometry" />
        </mxCell>
        <mxCell id="field_1000_0" value="id" style="text;align=left;verticalAlign=top;spacingLeft=4;spacingRight=4;overflow=hidden;rotatable=0;points=[[0,0.5],[1,0.5]];portConstraint=eastwest;" vertex="1" parent="table_1000">
          <mxGeometry y="26" width="200" height="20" as="geometry" />
        </mxCell>
        <mxCell id="field_1000_1" value="person_id" style="text;align=left;verticalAlign=top;spacingLeft=4;spacingRight=4;overflow=hidden;rotatable=0;points=[[0,0.5],[1,0.5]];portConstraint=eastwest;" vertex="1" parent="table_1000">
          <mxGeometry y="46" width="200" height="20" as="geometry" />
        </mxCell>
        <mxCell id="field_1000_2" value="company_id" style="text;align=left;verticalAlign=top;spacingLeft=4;spacingRight=4;overflow=hidden;rotatable=0;points=[[0,0.5],[1,0.5]];portConstraint=eastwest;" vertex="1" parent="table_1000">
          <mxGeometry y="66" width="200" height="20" as="geometry" />
        </mxCell>
        <mxCell id="field_1000_3" value="establishment_id" style="text;align=left;verticalAlign=top;spacingLeft=4;spacingRight=4;overflow=hidden;rotatable=0;points=[[0,0.5],[1,0.5]];portConstraint=eastwest;" vertex="1" parent="table_1000">
          <mxGeometry y="86" width="200" height="20" as="geometry" />
        </mxCell>
        <mxCell id="field_1000_4" value="email" style="text;align=left;verticalAlign=top;spacingLeft=4;spacingRight=4;overflow=hidden;rotatable=0;points=[[0,0.5],[1,0.5]];portConstraint=eastwest;" vertex="1" parent="table_1000">
          <mxGeometry y="106" width="200" height="20" as="geometry" />
        </mxCell>
        <mxCell id="field_1000_5" value="password_hash" style="text;align=left;verticalAlign=top;spacingLeft=4;spacingRight=4;overflow=hidden;rotatable=0;points=[[0,0.5],[1,0.5]];portConstraint=eastwest;" vertex="1" parent="table_1000">
          <mxGeometry y="126" width="200" height="20" as="geometry" />
        </mxCell>
        <mxCell id="field_1000_6" value="is_active" style="text;align=left;verticalAlign=top;spacingLeft=4;spacingRight=4;overflow=hidden;rotatable=0;points=[[0,0.5],[1,0.5]];portConstraint=eastwest;" vertex="1" parent="table_1000">
          <mxGeometry y="146" width="200" height="20" as="geometry" />
        </mxCell>
        <mxCell id="field_1000_7" value="is_system_admin" style="text;align=left;verticalAlign=top;spacingLeft=4;spacingRight=4;overflow=hidden;rotatable=0;points=[[0,0.5],[1,0.5]];portConstraint=eastwest;" vertex="1" parent="table_1000">
          <mxGeometry y="166" width="200" height="20" as="geometry" />
        </mxCell>
        <mxCell id="table_1001" value="&lt;b&gt;Role&lt;/b&gt;" style="swimlane;fontStyle=1;align=center;verticalAlign=top;childLayout=stackLayout;horizontal=1;startSize=26;horizontalStack=0;resizeParent=1;resizeParentMax=0;resizeLast=0;collapsible=1;marginBottom=0;fillColor=#FFE6CC;strokeColor=#6c8ebf;" vertex="1" parent="1">
          <mxGeometry x="300" y="120" width="200" height="140" as="geometry" />
        </mxCell>
        <mxCell id="field_1001_0" value="id" style="text;align=left;verticalAlign=top;spacingLeft=4;spacingRight=4;overflow=hidden;rotatable=0;points=[[0,0.5],[1,0.5]];portConstraint=eastwest;" vertex="1" parent="table_1001">
          <mxGeometry y="26" width="200" height="20" as="geometry" />
        </mxCell>
        <mxCell id="field_1001_1" value="name" style="text;align=left;verticalAlign=top;spacingLeft=4;spacingRight=4;overflow=hidden;rotatable=0;points=[[0,0.5],[1,0.5]];portConstraint=eastwest;" vertex="1" parent="table_1001">
          <mxGeometry y="46" width="200" height="20" as="geometry" />
        </mxCell>
        <mxCell id="field_1001_2" value="description" style="text;align=left;verticalAlign=top;spacingLeft=4;spacingRight=4;overflow=hidden;rotatable=0;points=[[0,0.5],[1,0.5]];portConstraint=eastwest;" vertex="1" parent="table_1001">
          <mxGeometry y="66" width="200" height="20" as="geometry" />
        </mxCell>
        <mxCell id="field_1001_3" value="context_type" style="text;align=left;verticalAlign=top;spacingLeft=4;spacingRight=4;overflow=hidden;rotatable=0;points=[[0,0.5],[1,0.5]];portConstraint=eastwest;" vertex="1" parent="table_1001">
          <mxGeometry y="86" width="200" height="20" as="geometry" />
        </mxCell>
        <mxCell id="field_1001_4" value="is_system_role" style="text;align=left;verticalAlign=top;spacingLeft=4;spacingRight=4;overflow=hidden;rotatable=0;points=[[0,0.5],[1,0.5]];portConstraint=eastwest;" vertex="1" parent="table_1001">
          <mxGeometry y="106" width="200" height="20" as="geometry" />
        </mxCell>
        <mxCell id="table_1002" value="&lt;b&gt;Permission&lt;/b&gt;" style="swimlane;fontStyle=1;align=center;verticalAlign=top;childLayout=stackLayout;horizontal=1;startSize=26;horizontalStack=0;resizeParent=1;resizeParentMax=0;resizeLast=0;collapsible=1;marginBottom=0;fillColor=#FFE6CC;strokeColor=#6c8ebf;" vertex="1" parent="1">
          <mxGeometry x="550" y="120" width="200" height="160" as="geometry" />
        </mxCell>
        <mxCell id="field_1002_0" value="id" style="text;align=left;verticalAlign=top;spacingLeft=4;spacingRight=4;overflow=hidden;rotatable=0;points=[[0,0.5],[1,0.5]];portConstraint=eastwest;" vertex="1" parent="table_1002">
          <mxGeometry y="26" width="200" height="20" as="geometry" />
        </mxCell>
        <mxCell id="field_1002_1" value="name" style="text;align=left;verticalAlign=top;spacingLeft=4;spacingRight=4;overflow=hidden;rotatable=0;points=[[0,0.5],[1,0.5]];portConstraint=eastwest;" vertex="1" parent="table_1002">
          <mxGeometry y="46" width="200" height="20" as="geometry" />
        </mxCell>
        <mxCell id="field_1002_2" value="description" style="text;align=left;verticalAlign=top;spacingLeft=4;spacingRight=4;overflow=hidden;rotatable=0;points=[[0,0.5],[1,0.5]];portConstraint=eastwest;" vertex="1" parent="table_1002">
          <mxGeometry y="66" width="200" height="20" as="geometry" />
        </mxCell>
        <mxCell id="field_1002_3" value="resource" style="text;align=left;verticalAlign=top;spacingLeft=4;spacingRight=4;overflow=hidden;rotatable=0;points=[[0,0.5],[1,0.5]];portConstraint=eastwest;" vertex="1" parent="table_1002">
          <mxGeometry y="86" width="200" height="20" as="geometry" />
        </mxCell>
        <mxCell id="field_1002_4" value="action" style="text;align=left;verticalAlign=top;spacingLeft=4;spacingRight=4;overflow=hidden;rotatable=0;points=[[0,0.5],[1,0.5]];portConstraint=eastwest;" vertex="1" parent="table_1002">
          <mxGeometry y="106" width="200" height="20" as="geometry" />
        </mxCell>
        <mxCell id="field_1002_5" value="context_type" style="text;align=left;verticalAlign=top;spacingLeft=4;spacingRight=4;overflow=hidden;rotatable=0;points=[[0,0.5],[1,0.5]];portConstraint=eastwest;" vertex="1" parent="table_1002">
          <mxGeometry y="126" width="200" height="20" as="geometry" />
        </mxCell>
        <mxCell id="table_1003" value="&lt;b&gt;UserRole&lt;/b&gt;" style="swimlane;fontStyle=1;align=center;verticalAlign=top;childLayout=stackLayout;horizontal=1;startSize=26;horizontalStack=0;resizeParent=1;resizeParentMax=0;resizeLast=0;collapsible=1;marginBottom=0;fillColor=#FFE6CC;strokeColor=#6c8ebf;" vertex="1" parent="1">
          <mxGeometry x="800" y="120" width="200" height="140" as="geometry" />
        </mxCell>
        <mxCell id="field_1003_0" value="id" style="text;align=left;verticalAlign=top;spacingLeft=4;spacingRight=4;overflow=hidden;rotatable=0;points=[[0,0.5],[1,0.5]];portConstraint=eastwest;" vertex="1" parent="table_1003">
          <mxGeometry y="26" width="200" height="20" as="geometry" />
        </mxCell>
        <mxCell id="field_1003_1" value="user_id" style="text;align=left;verticalAlign=top;spacingLeft=4;spacingRight=4;overflow=hidden;rotatable=0;points=[[0,0.5],[1,0.5]];portConstraint=eastwest;" vertex="1" parent="table_1003">
          <mxGeometry y="46" width="200" height="20" as="geometry" />
        </mxCell>
        <mxCell id="field_1003_2" value="role_id" style="text;align=left;verticalAlign=top;spacingLeft=4;spacingRight=4;overflow=hidden;rotatable=0;points=[[0,0.5],[1,0.5]];portConstraint=eastwest;" vertex="1" parent="table_1003">
          <mxGeometry y="66" width="200" height="20" as="geometry" />
        </mxCell>
        <mxCell id="field_1003_3" value="assigned_at" style="text;align=left;verticalAlign=top;spacingLeft=4;spacingRight=4;overflow=hidden;rotatable=0;points=[[0,0.5],[1,0.5]];portConstraint=eastwest;" vertex="1" parent="table_1003">
          <mxGeometry y="86" width="200" height="20" as="geometry" />
        </mxCell>
        <mxCell id="field_1003_4" value="assigned_by" style="text;align=left;verticalAlign=top;spacingLeft=4;spacingRight=4;overflow=hidden;rotatable=0;points=[[0,0.5],[1,0.5]];portConstraint=eastwest;" vertex="1" parent="table_1003">
          <mxGeometry y="106" width="200" height="20" as="geometry" />
        </mxCell>
        <mxCell id="table_1004" value="&lt;b&gt;RolePermission&lt;/b&gt;" style="swimlane;fontStyle=1;align=center;verticalAlign=top;childLayout=stackLayout;horizontal=1;startSize=26;horizontalStack=0;resizeParent=1;resizeParentMax=0;resizeLast=0;collapsible=1;marginBottom=0;fillColor=#FFE6CC;strokeColor=#6c8ebf;" vertex="1" parent="1">
          <mxGeometry x="50" y="420" width="200" height="120" as="geometry" />
        </mxCell>
        <mxCell id="field_1004_0" value="id" style="text;align=left;verticalAlign=top;spacingLeft=4;spacingRight=4;overflow=hidden;rotatable=0;points=[[0,0.5],[1,0.5]];portConstraint=eastwest;" vertex="1" parent="table_1004">
          <mxGeometry y="26" width="200" height="20" as="geometry" />
        </mxCell>
        <mxCell id="field_1004_1" value="role_id" style="text;align=left;verticalAlign=top;spacingLeft=4;spacingRight=4;overflow=hidden;rotatable=0;points=[[0,0.5],[1,0.5]];portConstraint=eastwest;" vertex="1" parent="table_1004">
          <mxGeometry y="46" width="200" height="20" as="geometry" />
        </mxCell>
        <mxCell id="field_1004_2" value="permission_id" style="text;align=left;verticalAlign=top;spacingLeft=4;spacingRight=4;overflow=hidden;rotatable=0;points=[[0,0.5],[1,0.5]];portConstraint=eastwest;" vertex="1" parent="table_1004">
          <mxGeometry y="66" width="200" height="20" as="geometry" />
        </mxCell>
        <mxCell id="field_1004_3" value="granted_by" style="text;align=left;verticalAlign=top;spacingLeft=4;spacingRight=4;overflow=hidden;rotatable=0;points=[[0,0.5],[1,0.5]];portConstraint=eastwest;" vertex="1" parent="table_1004">
          <mxGeometry y="86" width="200" height="20" as="geometry" />
        </mxCell>
      </root>
    </mxGraphModel>
  </diagram>
</mxfile>
